<svg xmlns="http://www.w3.org/2000/svg" width="40" height="40" fill="none"><path fill="#737A92" d="M20 24.333c-6.295 0-10.711-3.136-13.59-6.335a25.314 25.314 0 01-3.165-4.408c-.34-.6-.59-1.099-.752-1.444a13.636 13.636 0 01-.232-.518L1.333 12l-.928.372v.002l.002.003c0 .003.002.006.004.01a7.195 7.195 0 00.068.16c.046.107.114.26.205.452.181.385.453.928.82 1.577a27.313 27.313 0 003.419 4.76c3.121 3.468 8.038 6.997 15.077 6.997v-2zM38.666 12l-.928-.372-.002.004-.009.022-.041.098a21.906 21.906 0 01-.931 1.838 25.31 25.31 0 01-3.165 4.408c-2.88 3.198-7.296 6.335-13.59 6.335v2c7.038 0 11.955-3.53 15.076-6.997a27.312 27.312 0 003.419-4.76c.368-.649.64-1.192.82-1.577a15.698 15.698 0 00.259-.577l.014-.035.005-.01v-.003l.001-.002-.928-.372zM21 32v-6.667h-2V32h2zM3.373 27.374l5.334-5.334-1.414-1.414-5.334 5.334 1.414 1.414zm27.92-5.334l5.333 5.334 1.414-1.414-5.333-5.334-1.414 1.414z"/></svg>