<svg xmlns="http://www.w3.org/2000/svg" width="40" height="40" fill="none"><path fill="#737A92" d="M1.333 20l-.928-.371a1 1 0 000 .742l.928-.37zm37.333 0l.929.372a1 1 0 000-.743l-.929.371zM20 32.333c-6.295 0-10.711-3.136-13.59-6.335a25.314 25.314 0 01-3.165-4.408c-.34-.6-.59-1.099-.752-1.443a13.892 13.892 0 01-.23-.515l-.002-.004-.928.372-.928.372v.002l.002.003a2.339 2.339 0 00.018.046l.054.124c.046.107.114.26.205.452.181.385.453.928.82 1.577a27.313 27.313 0 003.419 4.76c3.121 3.468 8.038 6.997 15.077 6.997v-2zM1.333 20l.928.372.002-.004.009-.022.042-.098c.038-.089.098-.222.179-.394.162-.345.411-.843.752-1.444a25.314 25.314 0 013.165-4.408C9.289 10.803 13.705 7.667 20 7.667v-2c-7.039 0-11.956 3.53-15.077 6.998a27.312 27.312 0 00-3.418 4.759c-.368.649-.64 1.192-.821 1.577a15.878 15.878 0 00-.259.577l-.014.035-.004.01a.131.131 0 01-.002.003v.002l.928.372zM20 7.667c6.294 0 10.71 3.136 13.59 6.335a25.31 25.31 0 013.165 4.408c.34.6.59 1.099.752 1.444a13.486 13.486 0 01.22.492l.01.022a.084.084 0 01.001.004l.928-.372a101.966 101.966 0 00.928-.373l-.001-.004a1.172 1.172 0 00-.005-.01l-.014-.035a15.825 15.825 0 00-.258-.577 23.907 23.907 0 00-.821-1.577 27.316 27.316 0 00-3.419-4.76C31.956 9.197 27.038 5.667 20 5.667v2zM38.666 20l-.928-.372-.002.004-.009.022a13.736 13.736 0 01-.22.492c-.163.345-.412.844-.752 1.444a25.31 25.31 0 01-3.165 4.408c-2.88 3.199-7.296 6.335-13.59 6.335v2c7.038 0 11.955-3.53 15.076-6.997a27.312 27.312 0 003.419-4.76c.368-.649.64-1.192.82-1.577a15.698 15.698 0 00.259-.576l.014-.035.005-.011v-.003l.001-.002-.928-.372zM20 24.333A4.333 4.333 0 0115.666 20h-2A6.333 6.333 0 0020 26.333v-2zM24.333 20A4.333 4.333 0 0120 24.333v2A6.333 6.333 0 0026.333 20h-2zM20 15.667A4.333 4.333 0 0124.333 20h2A6.333 6.333 0 0020 13.667v2zm0-2A6.333 6.333 0 0013.666 20h2A4.333 4.333 0 0120 15.667v-2z"/></svg>