<svg xmlns="http://www.w3.org/2000/svg" width="40" height="40" fill="none"><path fill="#737A92" d="M12 9.333l.707-.707a1 1 0 00-1.414 0l.707.707zm-8-7h32v-2H4v2zM37.666 4v32h2V4h-2zM36 37.667H4v2h32v-2zM2.333 36V4h-2v32h2zM4 37.667c-.92 0-1.667-.747-1.667-1.667h-2A3.667 3.667 0 004 39.667v-2zM37.666 36c0 .92-.746 1.667-1.666 1.667v2A3.667 3.667 0 0039.666 36h-2zM36 2.333c.92 0 1.666.746 1.666 1.667h2A3.667 3.667 0 0036 .333v2zm-32-2A3.667 3.667 0 00.333 4h2c0-.92.746-1.667 1.667-1.667v-2zM1.333 29h37.333v-2H1.333v2zm.707-8.293L12.707 10.04l-1.414-1.414L.626 19.293l1.414 1.414zm9.253-10.667l18.666 18.667 1.414-1.414L12.707 8.626l-1.414 1.414zM28 13.667c-.92 0-1.667-.747-1.667-1.667h-2A3.667 3.667 0 0028 15.667v-2zM29.666 12c0 .92-.746 1.667-1.666 1.667v2A3.667 3.667 0 0031.666 12h-2zM28 10.333c.92 0 1.666.746 1.666 1.667h2A3.667 3.667 0 0028 8.333v2zm0-2A3.667 3.667 0 0024.333 12h2c0-.92.746-1.667 1.667-1.667v-2z"/></svg>