<svg xmlns="http://www.w3.org/2000/svg" width="40" height="40" fill="none"><path fill="#737A92" d="M4.094 20.095L20 36l15.905-15.905A9.428 9.428 0 0022.572 6.76L20 9.333l-2.572-2.572A9.428 9.428 0 004.094 20.095z"/><path fill="#737A92" d="M20 36l-.707.707a1 1 0 001.414 0L20 36zM4.094 20.095l-.707.707.707-.707zM17.428 6.76l-.707.708.707-.708zM20 9.333l-.707.707a1 1 0 001.414 0L20 9.333zm2.572-2.572l-.707-.707.707.707zm-1.865 28.532L4.802 19.388l-1.415 1.414 15.906 15.905 1.414-1.414zm14.49-15.905L19.294 35.293l1.414 1.414 15.905-15.905-1.414-1.414zM16.722 7.468l2.572 2.572 1.414-1.414-2.572-2.572L16.72 7.47zm3.986 2.572l2.572-2.571-1.415-1.415-2.571 2.572 1.414 1.414zM29.238 3a10.428 10.428 0 00-7.373 3.054l1.414 1.415A8.428 8.428 0 0129.239 5V3zm8.428 10.428a8.428 8.428 0 01-2.468 5.96l1.414 1.414a10.428 10.428 0 003.054-7.374h-2zm2 0C39.666 7.668 34.998 3 29.238 3v2a8.428 8.428 0 018.428 8.428h2zM10.761 5c2.235 0 4.38.888 5.96 2.469l1.414-1.415A10.428 10.428 0 0010.76 3v2zm-8.428 8.428A8.428 8.428 0 0110.761 5V3C5.001 3 .333 7.669.333 13.428h2zm2.469 5.96a8.428 8.428 0 01-2.469-5.96h-2c0 2.766 1.099 5.418 3.054 7.374l1.415-1.414z"/></svg>