<svg xmlns="http://www.w3.org/2000/svg" width="20" height="21" fill="none"><mask id="a" width="20" height="21" x="0" y="0" maskUnits="userSpaceOnUse"><path fill="#fff" fill-rule="evenodd" d="M0 .42h19.61v20.536H0V.42z" clip-rule="evenodd"/></mask><g mask="url(#a)"><path fill="#9E9E9E" fill-rule="evenodd" d="M1.503 19.452A5.108 5.108 0 010 15.811a5.11 5.11 0 011.503-3.641L12.155 1.518c1.523-1.523 3.891-1.454 5.507.162 1.616 1.616 1.686 3.982.162 5.507L7.818 17.194c-.939.94-2.47.94-3.41 0a2.416 2.416 0 010-3.41l6.777-6.778a.586.586 0 01.83.827l-6.779 6.78a1.24 1.24 0 001.753 1.752L16.997 6.36c1.052-1.052.982-2.708-.162-3.853-1.145-1.144-2.8-1.212-3.853-.16L2.33 12.998a3.954 3.954 0 00-1.16 2.813 3.958 3.958 0 003.975 3.975 3.95 3.95 0 002.814-1.16L18.611 7.973a.584.584 0 11.827.826L8.786 19.452a5.11 5.11 0 01-3.641 1.504 5.109 5.109 0 01-3.642-1.504z" clip-rule="evenodd"/></g></svg>