<svg xmlns="http://www.w3.org/2000/svg" width="20" height="21" fill="none"><mask id="a" width="20" height="21" x="0" y="0" maskUnits="userSpaceOnUse"><path fill="#fff" fill-rule="evenodd" d="M0 .04h20v20H0v-20z" clip-rule="evenodd"/></mask><g mask="url(#a)"><path fill="#9E9E9E" fill-rule="evenodd" d="M17.444 18.861H2.556a1.38 1.38 0 01-1.378-1.378v-2.148l3.877-3.3a.38.38 0 01.49-.002l2.43 2.017a.59.59 0 00.793-.037l5.77-5.78a.378.378 0 01.29-.111.378.378 0 01.276.14l3.718 4.578v4.643a1.38 1.38 0 01-1.378 1.378zM2.556 1.217h14.888c.76 0 1.378.618 1.378 1.378v8.376L16.019 7.52a1.562 1.562 0 00-2.314-.12l-5.391 5.4-2.015-1.673a1.557 1.557 0 00-2.007.012l-3.114 2.649V2.595c0-.76.618-1.378 1.378-1.378zM17.444.04H2.556A2.559 2.559 0 000 2.595v14.888a2.559 2.559 0 002.556 2.556h14.888A2.559 2.559 0 0020 17.483V2.595A2.559 2.559 0 0017.444.039z" clip-rule="evenodd"/></g><path fill="#9E9E9E" fill-rule="evenodd" d="M6.296 3.678c.917 0 1.662.746 1.662 1.662 0 .917-.745 1.663-1.662 1.663A1.664 1.664 0 014.634 5.34c0-.916.745-1.662 1.662-1.662zm0 4.503a2.844 2.844 0 002.84-2.84A2.844 2.844 0 006.296 2.5a2.844 2.844 0 00-2.84 2.84 2.844 2.844 0 002.84 2.84z" clip-rule="evenodd"/></svg>