<svg xmlns="http://www.w3.org/2000/svg" width="22" height="22" fill="none"><path fill="#000" d="M18.393 14.538a10.49 10.49 0 01-.526-3.273V8.518a7.034 7.034 0 00-1.744-4.738 7.065 7.065 0 00-4.458-2.368 6.706 6.706 0 00-2.846.312c-.921.296-1.76.79-2.467 1.448a6.769 6.769 0 00-1.66 2.303 6.967 6.967 0 00-.593 2.78v3.025a10.464 10.464 0 01-.527 3.26l-.822 2.432.659.904h4.819c0 .724.296 1.43.806 1.942a2.769 2.769 0 001.941.806c.723 0 1.43-.296 1.94-.806a2.77 2.77 0 00.808-1.942h4.819l.657-.904-.806-2.434zm-6.448 4.327a1.373 1.373 0 01-.97.411 1.37 1.37 0 01-.97-.412 1.371 1.371 0 01-.413-.97h2.749a1.29 1.29 0 01-.395.971h-.001zm-7.583-2.351l.51-1.532a11.87 11.87 0 00.609-3.7V8.256c0-.775.165-1.53.477-2.222A5.298 5.298 0 017.29 4.19a5.345 5.345 0 011.975-1.15c.74-.248 1.512-.33 2.268-.248a5.702 5.702 0 013.571 1.925 5.683 5.683 0 011.38 3.817v2.763c0 1.25.199 2.5.61 3.7l.51 1.53H4.363v-.016l-.002.002z"/></svg>