<svg xmlns="http://www.w3.org/2000/svg" width="52" height="16" fill="none"><path fill="#000" d="M13.219.781V15h-2.94V3.154H6.49l-.234 5.02c-.098 1.693-.313 3.027-.645 4.004-.332.97-.817 1.683-1.455 2.138-.638.45-1.51.677-2.617.684H.777v-2.354l.489-.048c.735-.098 1.26-.521 1.572-1.27.319-.755.52-2.096.605-4.023L3.687.78h9.532zm14.238 7.432c0 1.4-.247 2.627-.742 3.682-.495 1.054-1.205 1.868-2.13 2.44-.917.574-1.972.86-3.163.86-1.178 0-2.23-.283-3.154-.85-.925-.566-1.641-1.373-2.149-2.421-.508-1.055-.765-2.266-.771-3.633v-.703c0-1.4.25-2.63.752-3.692.507-1.067 1.22-1.884 2.138-2.45.925-.574 1.98-.86 3.164-.86 1.185 0 2.237.286 3.155.86.924.566 1.637 1.383 2.138 2.45.508 1.062.762 2.289.762 3.682v.635zm-2.969-.645c0-1.49-.267-2.623-.8-3.398-.534-.775-1.296-1.162-2.286-1.162-.983 0-1.741.384-2.275 1.152-.534.762-.804 1.882-.81 3.36v.693c0 1.452.266 2.578.8 3.379.534.8 1.302 1.201 2.305 1.201.983 0 1.738-.384 2.265-1.152.528-.775.795-1.901.801-3.38v-.693zm14.424-4.414h-6.377V15h-2.93V.781h9.307v2.373zm12.842 5.059c0 1.4-.247 2.627-.742 3.682-.495 1.054-1.205 1.868-2.13 2.44-.917.574-1.972.86-3.163.86-1.179 0-2.23-.283-3.154-.85-.925-.566-1.641-1.373-2.149-2.421-.508-1.055-.765-2.266-.771-3.633v-.703c0-1.4.25-2.63.752-3.692.507-1.067 1.22-1.884 2.138-2.45.925-.574 1.98-.86 3.164-.86 1.185 0 2.236.286 3.154.86.925.566 1.638 1.383 2.14 2.45.507 1.062.76 2.289.76 3.682v.635zm-2.969-.645c0-1.49-.267-2.623-.8-3.398-.535-.775-1.296-1.162-2.286-1.162-.983 0-1.741.384-2.275 1.152-.534.762-.804 1.882-.81 3.36v.693c0 1.452.266 2.578.8 3.379.534.8 1.302 1.201 2.305 1.201.983 0 1.738-.384 2.265-1.152.528-.775.795-1.901.801-3.38v-.693z"/></svg>